<svg xmlns="http://www.w3.org/2000/svg" width="1920.258" height="596.697" viewBox="0 0 1920.258 596.697">
  <g id="Group_57" data-name="Group 57" transform="translate(1585 591.697)">
    <rect id="Rectangle_58" data-name="Rectangle 58" width="1920" height="567" transform="translate(-1585 -562)" fill="#218169"/>
    <path id="Oval-1_2" data-name="Oval-1/2" d="M204.3,204.3C91.466,204.3,0,112.829,0,0H408.591C408.591,112.829,317.125,204.3,204.3,204.3Z" transform="translate(335.258 -560.013) rotate(90)" fill="rgba(255,255,255,0.3)"/>
    <path id="Fill_8" data-name="Fill 8" d="M55.515,408.591a193.971,193.971,0,0,1,.8-272.509L191.874,0a193.971,193.971,0,0,1-.8,272.509Z" transform="matrix(0.966, 0.259, -0.259, 0.966, 46.408, -591.697)" fill="rgba(255,255,255,0.1)"/>
    <path id="Oval-1_2-2" data-name="Oval-1/2" d="M204.3,204.3c112.829,0,204.3-91.466,204.3-204.3H0C0,112.829,91.466,204.3,204.3,204.3Z" transform="translate(-167.5 -558.417)" fill="rgba(255,255,255,0.05)"/>
  </g>
</svg>
