<svg id="Component_13_1" data-name="Component 13 – 1" xmlns="http://www.w3.org/2000/svg" width="359.668" height="347.842" viewBox="0 0 359.668 347.842">
  <g id="Group_12" data-name="Group 12" transform="matrix(1, 0, 0, 1, -1283.167, -207.149)">
    <path id="Fill_8" data-name="Fill 8" d="M38.255,279.836A132.27,132.27,0,0,1,38.808,93.2L132.22,0a132.269,132.269,0,0,1-.554,186.636Z" transform="translate(1599.376 411.808) rotate(137)" fill="#ff9632"/>
    <path id="Fill_8-2" data-name="Fill 8" d="M38.255,279.836A132.27,132.27,0,0,1,38.808,93.2L132.22,0a132.269,132.269,0,0,1-.554,186.636Z" transform="translate(1474.459 251.933) rotate(9)" fill="#386082"/>
    <path id="Fill_8-3" data-name="Fill 8" d="M21.172,188.027C4.48,171.124-.05,150.018,0,126.2A89.009,89.009,0,0,1,26.178,63.06L89.187,0a89.689,89.689,0,0,1-.373,126.28Z" transform="translate(1283.167 496.172) rotate(-72)" fill="#218169"/>
  </g>
</svg>
