<svg id="Group_26" data-name="Group 26" xmlns="http://www.w3.org/2000/svg" width="72" height="72" viewBox="0 0 72 72">
  <circle id="Oval" cx="36" cy="36" r="36" fill="rgba(136,60,62,0.05)"/>
  <g id="thumbs-down" transform="translate(16.5 19)">
    <g id="Path" transform="translate(12)" fill="none" stroke-miterlimit="10">
      <path d="M27,20.354a4.488,4.488,0,0,1-4.568,4.255h-7.8c.558,2.076,2.553,3.818,2.553,6.925,0,5.38-3.682,5.966-5.523,5.966-1.548,0-2.261-2.878-2.6-4.233a8.684,8.684,0,0,0-1.948-4.315c-2.491-2.382-3.8-5.42-6.836-8.284A.86.86,0,0,1,0,20.044V4.387a.9.9,0,0,1,.9-.879A12.511,12.511,0,0,0,4.943,2.324,22.8,22.8,0,0,1,14.114,0h.219c3.281,0,7.161.03,8.727,2.178a3.738,3.738,0,0,1,.472,3.269,5.6,5.6,0,0,1,1.256,5.476,5.883,5.883,0,0,1,.714,5.82l.008.009A5.184,5.184,0,0,1,27,20.354Z" stroke="none"/>
      <path d="M 11.96531295776367 35.49253845214844 C 12.59127330780029 35.46166610717773 13.36096572875977 35.32514572143555 13.95101261138916 34.90517044067383 C 14.76769256591797 34.32387924194336 15.18179225921631 33.18978881835938 15.18179225921631 31.53442001342773 C 15.18179225921631 30.09914970397949 14.59722232818604 29.05249977111816 13.92034244537354 27.84058952331543 C 13.45262241363525 27.00316047668457 12.96898174285889 26.13722038269043 12.69773197174072 25.12895965576172 L 12.01990222930908 22.6093807220459 L 14.62906169891357 22.6093807220459 L 22.43220138549805 22.6093807220459 C 23.93806266784668 22.6093807220459 24.99406242370605 21.41493988037109 24.99997138977051 20.34462928771973 C 25.00357246398926 19.57649040222168 24.64367294311523 18.69220924377441 24.1247615814209 18.1942195892334 L 24.0948314666748 18.16550064086914 L 24.06612205505371 18.13557052612305 L 24.05769157409668 18.12677955627441 L 23.13035202026367 17.15983963012695 L 23.67168235778809 15.93432998657227 C 24.12009239196777 14.91917037963867 24.1066722869873 13.29570960998535 23.21343231201172 12.15701961517334 L 22.5368824005127 11.29456996917725 L 22.89989280700684 10.26027011871338 C 23.30743217468262 9.099109649658203 22.82553291320801 7.567019939422607 22.1197624206543 6.864590167999268 L 21.31013298034668 6.05879020690918 L 21.59283256530762 4.95205020904541 C 21.82848167419434 4.02947998046875 21.6201114654541 3.599639892578125 21.44256210327148 3.356149911880493 C 21.06911277770996 2.843709945678711 20.24527168273926 2.472739934921265 18.99392127990723 2.2535400390625 C 17.5465030670166 2 15.76427173614502 2 14.33222198486328 2 L 14.11361217498779 2 C 10.81892204284668 2 8.114831924438477 3.149120092391968 5.729062080383301 4.162960052490234 L 5.724442005157471 4.164929866790771 L 5.723832130432129 4.16519021987915 C 4.559258460998535 4.659176349639893 3.255203247070312 5.180233478546143 2.000002145767212 5.400485992431641 L 2.000002145767212 19.55533409118652 C 3.559942960739136 21.09417152404785 4.689938068389893 22.66764068603516 5.695132255554199 24.06730079650879 C 6.598252296447754 25.32485008239746 7.451292037963867 26.51265907287598 8.492092132568359 27.50802040100098 C 10.04254245758057 28.99246978759766 10.54875183105469 31.00288963317871 10.9959020614624 32.77878189086914 L 11.00346183776855 32.80878829956055 C 11.12840175628662 33.30490112304688 11.29951190948486 33.98432922363281 11.53191184997559 34.60073852539062 C 11.71381759643555 35.08322525024414 11.868821144104 35.35270690917969 11.96531295776367 35.49253845214844 M 11.65907192230225 37.5 C 10.11117172241211 37.5 9.397822380065918 34.62231826782227 9.056491851806641 33.26733016967773 C 8.656862258911133 31.68017959594727 8.244192123413086 30.03955078125 7.108962059020996 28.95264053344727 C 4.618371963500977 26.57080078125 3.311332225799561 23.5327205657959 0.2730721533298492 20.66820907592773 C 0.09852216392755508 20.50330924987793 0.000212166749406606 20.27865028381348 2.166748117815587e-06 20.044189453125 L 2.166748117815587e-06 4.387209892272949 C -8.78332502907142e-05 3.90802001953125 0.4018321633338928 3.517090082168579 0.9035821557044983 3.508300065994263 C 2.117812156677246 3.487060070037842 3.718632221221924 2.843260049819946 4.942831993103027 2.323980093002319 C 7.378191947937012 1.289059996604919 10.40955257415771 0 14.11361217498779 0 L 14.33222198486328 0 C 17.61363220214844 0 21.49334144592285 0.03002999909222126 23.05888175964355 2.17822003364563 C 23.70243263244629 3.060790061950684 23.86044311523438 4.155759811401367 23.53061294555664 5.447020053863525 C 24.78166198730469 6.692140102386475 25.45282173156738 9.025639533996582 24.78703308105469 10.92261028289795 C 26.13319206237793 12.63866996765137 26.25592231750488 15.03369045257568 25.50115203857422 16.74242973327637 L 25.50958251953125 16.751220703125 C 26.42083168029785 17.62573051452637 27.0060920715332 19.04297065734863 26.99995231628418 20.35400009155273 C 26.9876823425293 22.57690048217773 24.99336242675781 24.6093807220459 22.43220138549805 24.6093807220459 L 14.62906169891357 24.6093807220459 C 15.18747234344482 26.68506050109863 17.18179130554199 28.427490234375 17.18179130554199 31.53442001342773 C 17.18179130554199 36.91405868530273 13.49997234344482 37.5 11.65907192230225 37.5 Z" stroke="none" fill="#883c3e"/>
    </g>
    <path id="Shape" d="M2.062,21A1.926,1.926,0,0,1,0,19.249V1.75A1.925,1.925,0,0,1,2.062,0H8.937A1.926,1.926,0,0,1,11,1.75v17.5A1.927,1.927,0,0,1,8.937,21Z" transform="translate(0.5 3)" fill="#883c3e"/>
  </g>
</svg>
