<svg id="Component_17_1" data-name="Component 17 – 1" xmlns="http://www.w3.org/2000/svg" width="41" height="41" viewBox="0 0 41 41">
  <path id="Subtraction_1" data-name="Subtraction 1" d="M26,28H24.976A3.628,3.628,0,0,0,26,27.841V28Zm-8.187,0H14.25V15.75H12.469a1.75,1.75,0,1,1,0-3.5H14.25V9.625A6.187,6.187,0,0,1,20.484,3.5h1.069a1.75,1.75,0,1,1,0,3.5H20.484a2.679,2.679,0,0,0-1.889.769,2.583,2.583,0,0,0-.782,1.856V12.25h3.74a1.75,1.75,0,1,1,0,3.5h-3.74V28Z" transform="translate(2.313 4.5)" fill="#fff"/>
  <g id="Rectangle_Copy_6" data-name="Rectangle Copy 6" fill="none" stroke="#fff" stroke-miterlimit="10" stroke-width="2">
    <rect width="41" height="41" rx="10" stroke="none"/>
    <rect x="1" y="1" width="39" height="39" rx="9" fill="none"/>
  </g>
</svg>
