<svg xmlns="http://www.w3.org/2000/svg" xmlns:xlink="http://www.w3.org/1999/xlink" width="502.758" height="408.591" viewBox="0 0 502.758 408.591"><defs><clipPath id="a"><rect width="204.3" height="408.591" transform="translate(298.458)" fill="none"/></clipPath><clipPath id="b"><rect width="287.734" height="359.382" transform="translate(131.099 18.383)" fill="none"/></clipPath><clipPath id="c"><rect width="408.6" height="204.3" transform="translate(0 1.596)" fill="none"/></clipPath></defs><g opacity="0.44"><g clip-path="url(#a)"><path d="M298.458,204.3C298.458,91.466,389.929,0,502.758,0V408.591c-112.829,0-204.3-91.466-204.3-204.291" fill="#fff"/></g></g><g opacity="0.23"><g clip-path="url(#b)"><path d="M156.192,377.766c-52.184-92.435-20.388-209.645,71.353-263.037L393.74,18.384c52.183,92.434,20.388,209.644-71.353,263.036Z" fill="#fff"/></g></g><g opacity="0.19"><g clip-path="url(#c)"><path d="M204.3,205.9c112.829,0,204.3-91.466,204.3-204.3H0C0,114.425,91.466,205.9,204.3,205.9" fill="#fff"/></g></g><rect width="502.758" height="408.591" fill="none"/><rect width="502.758" height="408.591" fill="none"/></svg>