<svg id="lightbulb" xmlns="http://www.w3.org/2000/svg" width="84.391" height="85.482" viewBox="0 0 84.391 85.482">
  <path id="Path_1" data-name="Path 1" d="M218.169,460.583v2.165a5.194,5.194,0,0,1-.031.565,5.1,5.1,0,0,1-5.064,4.529h-7.812a5.1,5.1,0,0,1-5.064-4.529,5.186,5.186,0,0,1-.031-.565v-2.165a5.407,5.407,0,0,0,2.208.467h13.587A5.407,5.407,0,0,0,218.169,460.583Z" transform="translate(-166.718 -382.361)" fill="#50758d"/>
  <g id="Group_8" data-name="Group 8">
    <path id="Path_2" data-name="Path 2" d="M245.441,11.135a1.274,1.274,0,0,1-1.274-1.274V1.274a1.274,1.274,0,1,1,2.547,0V9.861A1.274,1.274,0,0,1,245.441,11.135Z" transform="translate(-203.245 0)" fill="#faa515"/>
    <path id="Path_3" data-name="Path 3" d="M81.132,79.194a1.27,1.27,0,0,1-.9-.373l-6.072-6.072a1.274,1.274,0,0,1,1.8-1.8l6.072,6.072a1.274,1.274,0,0,1-.9,2.174Z" transform="translate(-61.801 -58.588)" fill="#faa515"/>
    <path id="Path_4" data-name="Path 4" d="M13.074,243.5H4.487a1.274,1.274,0,1,1,0-2.547h8.587a1.274,1.274,0,0,1,0,2.547Z" transform="translate(-3.213 -200.031)" fill="#faa515"/>
    <path id="Path_5" data-name="Path 5" d="M75.06,384.2a1.274,1.274,0,0,1-.9-2.174l6.072-6.072a1.274,1.274,0,0,1,1.8,1.8l-6.072,6.072a1.27,1.27,0,0,1-.9.373Z" transform="translate(-61.801 -311.794)" fill="#faa515"/>
    <path id="Path_6" data-name="Path 6" d="M386.137,384.2a1.27,1.27,0,0,1-.9-.373l-6.072-6.072a1.274,1.274,0,0,1,1.8-1.8l6.072,6.072a1.274,1.274,0,0,1-.9,2.174Z" transform="translate(-315.006 -311.794)" fill="#faa515"/>
    <path id="Path_7" data-name="Path 7" d="M444.418,243.5h-8.587a1.274,1.274,0,1,1,0-2.547h8.587a1.274,1.274,0,0,1,0,2.547Z" transform="translate(-361.301 -200.031)" fill="#faa515"/>
    <path id="Path_8" data-name="Path 8" d="M380.065,79.194a1.274,1.274,0,0,1-.9-2.174l6.072-6.072a1.274,1.274,0,0,1,1.8,1.8l-6.072,6.072A1.27,1.27,0,0,1,380.065,79.194Z" transform="translate(-315.006 -58.588)" fill="#faa515"/>
  </g>
  <path id="Path_9" data-name="Path 9" d="M209.168,453.333s-8.327,1.532-9,1.231v2.165a5.189,5.189,0,0,0,.031.566,5.1,5.1,0,0,0,5.064,4.529h2.208a5.1,5.1,0,0,1-4.8-3.39.511.511,0,0,1,.479-.686h12.815a5.408,5.408,0,0,0,2.177-.453,5.189,5.189,0,0,0,.031-.566v-2.165C217.5,454.865,209.168,453.333,209.168,453.333Z" transform="translate(-166.718 -376.342)" fill="#2b597f"/>
  <path id="Path_10" data-name="Path 10" d="M205.158,383.183a5.43,5.43,0,0,1-5.435,5.435H186.137a5.43,5.43,0,0,1-5.435-5.435s-.08-7.938-.1-8.145v-.007l12.323-1.7,12.182,1.7Z" transform="translate(-150.48 -309.929)" fill="#50758d"/>
  <path id="Path_11" data-name="Path 11" d="M189.024,396.92h-2.887a5.43,5.43,0,0,1-5.435-5.435s-.08-7.938-.1-8.145v-.007h2.887v.007c.015.207.1,8.145.1,8.145a5.43,5.43,0,0,0,5.435,5.435Z" transform="translate(-150.48 -318.231)" fill="#2b597f"/>
  <path id="Path_12" data-name="Path 12" d="M297.771,418.381h-4.331a1.274,1.274,0,0,1,0-2.548h4.317l.007,1.274Z" transform="translate(-243.093 -345.211)" fill="#2b597f"/>
  <path id="Path_13" data-name="Path 13" d="M196.472,417.107a1.274,1.274,0,0,1-1.274,1.274H181.016l-.029-2.548H195.2A1.274,1.274,0,0,1,196.472,417.107Z" transform="translate(-150.795 -345.211)" fill="#2b597f"/>
  <path id="Path_14" data-name="Path 14" d="M134.9,90.488h0c-13.116-.2-24.147,11.23-23.911,24.251a24.361,24.361,0,0,0,6.894,17.043c2.512,2.583,4.686,4.971,4.927,8.439l24.505.041c.138-3.57,2.167-5.982,4.7-8.622a24.358,24.358,0,0,0,6.756-16.9A24.071,24.071,0,0,0,134.9,90.488Z" transform="translate(-92.682 -75.117)" fill="#fad207"/>
  <path id="Path_15" data-name="Path 15" d="M147.313,140.258v.005l-24.505-.041c-.241-3.468-2.415-5.856-4.927-8.439a24.361,24.361,0,0,1-6.894-17.043c-.236-13.021,10.795-24.452,23.911-24.25q.634,0,1.262.034c-12.389.718-22.511,11.737-22.285,24.216a24.361,24.361,0,0,0,6.893,17.043c2.512,2.583,4.686,4.971,4.927,8.439Z" transform="translate(-92.681 -75.12)" fill="#faa515"/>
  <path id="Path_16" data-name="Path 16" d="M191.664,212.1a2.8,2.8,0,0,1-2.109,1.082l-.1,0a2.8,2.8,0,0,1-2.079-.923l-7.982-8.831a2.8,2.8,0,0,1,4.158-3.758l5.74,6.351,9.159-11.8a2.8,2.8,0,1,1,4.427,3.437Z" transform="translate(-148.869 -160.342)" fill="#faa515"/>
</svg>
