<svg id="Group_25" data-name="Group 25" xmlns="http://www.w3.org/2000/svg" width="72" height="72" viewBox="0 0 72 72">
  <circle id="Oval" cx="36" cy="36" r="36" fill="rgba(33,129,105,0.05)"/>
  <g id="thumbs-up" transform="translate(13.5 15)">
    <path id="Path" d="M.27,17.505c3.007-2.982,4.3-6.139,6.766-8.616C8.159,7.759,8.567,6.053,8.963,4.4,9.3,2.993,10.007,0,11.539,0,13.361,0,17,.609,17,6.2c0,3.231-1.974,5.043-2.527,7.2H22.2a4.544,4.544,0,0,1,4.521,4.426,5.525,5.525,0,0,1-1.476,3.747l-.008.009a6.378,6.378,0,0,1-.707,6.053,6.039,6.039,0,0,1-1.244,5.695,4.054,4.054,0,0,1-.467,3.4C21.271,38.969,17.431,39,14.184,39h-.216a21.718,21.718,0,0,1-9.077-2.417,11.953,11.953,0,0,0-4-1.232A.913.913,0,0,1,0,34.437V18.154A.916.916,0,0,1,.27,17.505Z" transform="translate(12.278)" fill="none" stroke="#218169" stroke-miterlimit="10" stroke-width="2"/>
    <path id="Shape" d="M1.9,22.388A1.88,1.88,0,0,1,0,20.523V1.866A1.881,1.881,0,0,1,1.9,0H8.215a1.882,1.882,0,0,1,1.9,1.866V20.523a1.881,1.881,0,0,1-1.9,1.866Z" transform="translate(0 16.611)" fill="#218169"/>
  </g>
</svg>
