<svg xmlns="http://www.w3.org/2000/svg" width="29.906" height="25.939" viewBox="0 0 29.906 25.939">
  <g id="login" transform="translate(0 0)">
    <path id="Path" d="M15.887,7.791v4.1a1.215,1.215,0,0,1-.366.871,1.264,1.264,0,0,1-.888.359H12.961a1.264,1.264,0,0,1-.888-.359,1.215,1.215,0,0,1-.366-.871v-4.1A3.661,3.661,0,0,0,10.59,5.17,3.807,3.807,0,0,0,7.907,4.1,3.759,3.759,0,0,0,4.181,7.837v3.644H0V7.868A7.917,7.917,0,0,1,7.918,0,7.878,7.878,0,0,1,15.887,7.791Z" transform="translate(14.018 0)" fill="#413e83" opacity="0.6"/>
    <path id="Path-2" data-name="Path" d="M23.364,2.441v9.765a2.473,2.473,0,0,1-2.5,2.441H2.5A2.473,2.473,0,0,1,0,12.206V2.441A2.473,2.473,0,0,1,2.5,0H20.86A2.473,2.473,0,0,1,23.364,2.441Z" transform="translate(0 11.291)" fill="#ff9632"/>
  </g>
</svg>
