<svg xmlns="http://www.w3.org/2000/svg" width="29.906" height="25.11" viewBox="0 0 29.906 25.11">
  <g id="menu" transform="translate(0 0)">
    <path id="Path" d="M1.068,4.185H28.837a1.057,1.057,0,0,0,1.068-1.046V1.046A1.057,1.057,0,0,0,28.837,0H1.068A1.057,1.057,0,0,0,0,1.046V3.139A1.057,1.057,0,0,0,1.068,4.185Z" transform="translate(0 10.463)" fill="#413e83"/>
    <path id="Shape" d="M1.068,25.11A1.057,1.057,0,0,1,0,24.064V21.972a1.057,1.057,0,0,1,1.068-1.046h27.77a1.058,1.058,0,0,1,1.069,1.046v2.093a1.058,1.058,0,0,1-1.069,1.046Zm0-20.925A1.058,1.058,0,0,1,0,3.139V1.046A1.057,1.057,0,0,1,1.068,0h27.77a1.058,1.058,0,0,1,1.069,1.046V3.139a1.058,1.058,0,0,1-1.069,1.047Z" transform="translate(0 0)" fill="#413e83"/>
  </g>
</svg>
