<svg xmlns="http://www.w3.org/2000/svg" width="27" height="26" viewBox="0 0 27 26">
  <g id="phone" transform="translate(0.403 -0.162)">
    <path id="Shape" d="M23.563,26A23.56,23.56,0,0,1,0,2.437,1.219,1.219,0,0,1,.944,1.249L3.775.6,7.617,9.558l-.985.806a18.817,18.817,0,0,0,9,9l.806-.985,8.969,3.843-.654,2.835A1.218,1.218,0,0,1,23.565,26Zm-6.054-8.931.641-.782a1.217,1.217,0,0,1,1.422-.351l5.687,2.437a1.233,1.233,0,0,1,.711,1.4l-.193.838ZM5.383.225,6.226.031a1.224,1.224,0,0,1,1.4.705L10.06,6.424a1.214,1.214,0,0,1-.351,1.422l-.784.641Z" transform="translate(-0.403 0.162)" fill="#413e83"/>
    <path id="Shape-2" data-name="Shape" d="M12.661,18.156l1.071-1.309L22,20.391,21.629,22ZM0,.372,1.608,0,5.151,8.263,3.842,9.335Z" transform="translate(4.597 0.162)" fill="#413e83" opacity="0.2"/>
  </g>
</svg>
