<svg xmlns="http://www.w3.org/2000/svg" width="32.398" height="31.737" viewBox="0 0 32.398 31.737">
  <g id="search" transform="translate(0 0)">
    <path id="Shape" d="M0,13.224A13.363,13.363,0,0,1,13.5,0,13.363,13.363,0,0,1,27,13.224,13.363,13.363,0,0,1,13.5,26.447,13.363,13.363,0,0,1,0,13.224Z" transform="translate(0 0)" fill="#413e83" opacity="0.6"/>
    <path id="Path" d="M11.4,9.3,9.492,11.171a1.638,1.638,0,0,1-2.289,0L.473,4.581A1.57,1.57,0,0,1,0,3.457V2.38L2.43,0h1.1A1.638,1.638,0,0,1,4.678.463l6.731,6.59A1.57,1.57,0,0,1,11.4,9.3Z" transform="translate(20.519 20.1)" fill="#423d86"/>
  </g>
</svg>
