<svg xmlns="http://www.w3.org/2000/svg" width="41" height="41" viewBox="0 0 41 41">
  <g id="Group_58" data-name="Group 58" transform="translate(-268 -3192)">
    <path id="Path" d="M9.006,2.341A2.3,2.3,0,0,0,6.754,0,2.3,2.3,0,0,0,4.5,2.341V5.852H2.251A2.3,2.3,0,0,0,0,8.193a2.3,2.3,0,0,0,2.251,2.341H4.5V17.3a7.922,7.922,0,0,0,10.649,7.671l1.387-.538a2.37,2.37,0,0,0,1.317-3.015,2.228,2.228,0,0,0-2.9-1.369l-1.387.538a3.269,3.269,0,0,1-3.108-.4A3.553,3.553,0,0,1,9.006,17.3v-6.77h5.628a2.3,2.3,0,0,0,2.251-2.341,2.3,2.3,0,0,0-2.251-2.341H9.006Z" transform="translate(280 3199.5)" fill="#fff"/>
    <g id="Rectangle_Copy" data-name="Rectangle Copy" transform="translate(268 3192)" fill="none" stroke="#fff" stroke-miterlimit="10" stroke-width="2">
      <rect width="41" height="41" rx="10" stroke="none"/>
      <rect x="1" y="1" width="39" height="39" rx="9" fill="none"/>
    </g>
  </g>
</svg>
