<svg xmlns="http://www.w3.org/2000/svg" width="41" height="41" viewBox="0 0 41 41">
  <g id="Group_60" data-name="Group 60" transform="translate(-385 -3192)">
    <path id="Path" d="M5.317,1.3A1.823,1.823,0,0,0,4.351.17,1.765,1.765,0,0,0,2.878.154l-1.8.8A1.847,1.847,0,0,0,.139,3.342a1.785,1.785,0,0,0,2.325,1L5.671,15.2a1.8,1.8,0,0,0,1.72,1.3,5.545,5.545,0,0,0,2.681-.977,19.049,19.049,0,0,0,5.175-5.412,15.284,15.284,0,0,0,2.581-5.9,8.922,8.922,0,0,0,.119-2.686A1.808,1.808,0,0,0,16.173,0h-1.6a1.812,1.812,0,0,0-1.793,1.679,1.827,1.827,0,0,0,1.491,1.962,11.692,11.692,0,0,1-1.964,4.352A17.06,17.06,0,0,1,8.528,12.17L5.317,1.3Z" transform="translate(397 3204)" fill="#fff"/>
    <g id="Rectangle_Copy_5" data-name="Rectangle Copy 5" transform="translate(385 3192)" fill="none" stroke="#fff" stroke-miterlimit="10" stroke-width="2">
      <rect width="41" height="41" rx="10" stroke="none"/>
      <rect x="1" y="1" width="39" height="39" rx="9" fill="none"/>
    </g>
  </g>
</svg>
